<svg width="149" height="28" viewBox="0 0 149 28" fill="none" xmlns="http://www.w3.org/2000/svg">
<path d="M27 3L24.3581 17.7026C22.5832 27.5803 8.41678 27.5803 6.64187 17.7026L4 3" stroke="url(#paint0_linear_350_2963)" stroke-width="5"/>
<path d="M24 2L17.4138 23.6958C16.8394 25.5879 14.1606 25.5879 13.5862 23.6958L7 2" stroke="#D8D8D8" stroke-width="5"/>
<path d="M53.373 6.625V16.0781C53.373 17.0742 53.1354 17.9661 52.6602 18.7539C52.1849 19.5352 51.5143 20.1471 50.6484 20.5898C49.7891 21.0326 48.793 21.2539 47.6602 21.2539C46.5273 21.2539 45.528 21.0326 44.6621 20.5898C43.7962 20.1471 43.1257 19.5352 42.6504 18.7539C42.1816 17.9661 41.9473 17.0742 41.9473 16.0781V6.625H44.2422V15.9707C44.2422 16.6087 44.3789 17.1751 44.6523 17.6699C44.9323 18.1582 45.3294 18.5423 45.8438 18.8223C46.3646 19.1022 46.9701 19.2422 47.6602 19.2422C48.3568 19.2422 48.9622 19.1022 49.4766 18.8223C49.9909 18.5423 50.3848 18.1582 50.6582 17.6699C50.9382 17.1751 51.0781 16.6087 51.0781 15.9707V6.625H53.373ZM55.5016 10.2578H57.5816V12.6016L57.1227 12.8555C57.2333 12.2891 57.4449 11.7943 57.7574 11.3711C58.0764 10.9414 58.4671 10.6126 58.9293 10.3848C59.3915 10.1569 59.9026 10.043 60.4625 10.043V12.1035C59.8766 12.0905 59.372 12.2012 58.9488 12.4355C58.5322 12.6634 58.2099 12.9987 57.982 13.4414C57.7607 13.8841 57.65 14.4147 57.65 15.0332V21H55.5016V10.2578ZM67.7961 21.2148C67.1581 21.2148 66.5298 21.0814 65.9113 20.8145C65.2928 20.5475 64.759 20.1732 64.3098 19.6914C63.8671 19.2031 63.5708 18.653 63.4211 18.041L64.1047 18.1289V21H61.8977V6.40039H64.1242V13.2949H63.4992C63.5708 12.6699 63.8117 12.1068 64.2219 11.6055C64.632 11.1042 65.1496 10.7168 65.7746 10.4434C66.3996 10.1634 67.0604 10.0234 67.757 10.0234C68.7727 10.0234 69.6776 10.2611 70.4719 10.7363C71.2727 11.2051 71.8944 11.8659 72.3371 12.7188C72.7863 13.5651 73.0109 14.5286 73.0109 15.6094C73.0109 16.6901 72.7896 17.6536 72.3469 18.5C71.9107 19.3464 71.2954 20.0104 70.5012 20.4922C69.7069 20.974 68.8052 21.2148 67.7961 21.2148ZM67.4934 19.2031C68.1249 19.2031 68.6848 19.0501 69.173 18.7441C69.6613 18.4382 70.0357 18.015 70.2961 17.4746C70.563 16.9342 70.6965 16.3125 70.6965 15.6094C70.6965 14.8997 70.563 14.2715 70.2961 13.7246C70.0357 13.1712 69.6613 12.748 69.173 12.4551C68.6848 12.1556 68.1249 12.0059 67.4934 12.0059C66.8684 12.0059 66.2922 12.1589 65.7648 12.4648C65.2375 12.7643 64.8208 13.1908 64.5148 13.7441C64.2089 14.291 64.0559 14.9128 64.0559 15.6094C64.0559 16.293 64.2089 16.9082 64.5148 17.4551C64.8273 17.9954 65.244 18.4219 65.7648 18.7344C66.2922 19.0469 66.8684 19.2031 67.4934 19.2031ZM79.3191 21.2148C78.31 21.2148 77.4116 20.974 76.6238 20.4922C75.8426 20.0104 75.2273 19.3464 74.7781 18.5C74.3289 17.6471 74.1076 16.6836 74.1141 15.6094C74.1141 14.5286 74.3387 13.5651 74.7879 12.7188C75.2436 11.8724 75.8654 11.2116 76.6531 10.7363C77.4474 10.2611 78.3491 10.0234 79.3582 10.0234C80.0483 10.0234 80.7059 10.1602 81.3309 10.4336C81.9624 10.707 82.4832 11.0846 82.8934 11.5664C83.3035 12.0482 83.5477 12.582 83.6258 13.168L82.9617 13.1387V10.2578H85.1785V21H82.9715L82.9813 18.5977L83.743 18.0703C83.5802 18.6758 83.271 19.2194 82.8152 19.7012C82.366 20.1764 81.8289 20.5475 81.2039 20.8145C80.5854 21.0814 79.9572 21.2148 79.3191 21.2148ZM79.6219 19.2324C80.2469 19.2324 80.823 19.0794 81.3504 18.7734C81.8777 18.4609 82.2944 18.0312 82.6004 17.4844C82.9129 16.931 83.0691 16.306 83.0691 15.6094C83.0691 14.9062 82.9129 14.2812 82.6004 13.7344C82.2944 13.1875 81.8777 12.7611 81.3504 12.4551C80.823 12.1426 80.2469 11.9863 79.6219 11.9863C78.9904 11.9863 78.4305 12.1361 77.9422 12.4355C77.4604 12.7285 77.0861 13.1517 76.8191 13.7051C76.5522 14.2585 76.4188 14.8932 76.4188 15.6094C76.4188 16.319 76.5522 16.9473 76.8191 17.4941C77.0861 18.041 77.4604 18.4674 77.9422 18.7734C78.4305 19.0794 78.9904 19.2324 79.6219 19.2324ZM89.5922 21H87.3852V10.2578H89.5434V12.7773L89.0551 12.9629C89.1332 12.4095 89.3448 11.9049 89.6898 11.4492C90.0414 10.9935 90.4809 10.6419 91.0082 10.3945C91.5355 10.1471 92.1052 10.0234 92.7172 10.0234C93.4789 10.0234 94.1527 10.1927 94.7387 10.5312C95.3246 10.8633 95.7771 11.3353 96.0961 11.9473C96.4151 12.5592 96.5746 13.2656 96.5746 14.0664V21H94.3578V14.4961C94.3578 13.9818 94.2667 13.5358 94.0844 13.1582C93.9021 12.7806 93.6384 12.4941 93.2934 12.2988C92.9548 12.097 92.5577 11.9961 92.102 11.9961C91.6332 11.9961 91.2068 12.1198 90.8227 12.3672C90.4451 12.6146 90.1456 12.9531 89.9242 13.3828C89.7029 13.8125 89.5922 14.291 89.5922 14.8184V21ZM103.674 21.2344C102.6 21.2344 101.639 20.9967 100.793 20.5215C99.9531 20.0462 99.2923 19.3854 98.8105 18.5391C98.3353 17.6862 98.0977 16.7194 98.0977 15.6387C98.0977 14.5514 98.3353 13.5814 98.8105 12.7285C99.2923 11.8757 99.9531 11.2116 100.793 10.7363C101.639 10.2611 102.6 10.0234 103.674 10.0234C104.755 10.0234 105.718 10.2611 106.564 10.7363C107.417 11.2116 108.081 11.8757 108.557 12.7285C109.038 13.5814 109.279 14.5514 109.279 15.6387C109.279 16.7194 109.042 17.6862 108.566 18.5391C108.098 19.3854 107.434 20.0462 106.574 20.5215C105.721 20.9967 104.755 21.2344 103.674 21.2344ZM103.674 19.2031C104.325 19.2031 104.901 19.0566 105.402 18.7637C105.904 18.4642 106.288 18.0443 106.555 17.5039C106.828 16.9635 106.965 16.3418 106.965 15.6387C106.965 14.929 106.828 14.304 106.555 13.7637C106.288 13.2168 105.904 12.7969 105.402 12.5039C104.901 12.2044 104.325 12.0547 103.674 12.0547C103.023 12.0547 102.45 12.2044 101.955 12.5039C101.46 12.7969 101.076 13.2168 100.803 13.7637C100.536 14.304 100.402 14.929 100.402 15.6387C100.402 16.3418 100.539 16.9635 100.812 17.5039C101.092 18.0443 101.477 18.4642 101.965 18.7637C102.46 19.0566 103.029 19.2031 103.674 19.2031ZM115.763 20.3262L114.171 20.2773L118.927 6.625H121.271L116.056 21H113.634L108.429 6.625H110.978L115.763 20.3262ZM125.988 21.2637C124.933 21.2637 123.982 21.026 123.136 20.5508C122.29 20.0755 121.626 19.4115 121.144 18.5586C120.662 17.7057 120.421 16.7324 120.421 15.6387C120.421 14.584 120.668 13.6302 121.163 12.7773C121.658 11.918 122.329 11.2441 123.175 10.7559C124.021 10.2676 124.959 10.0234 125.988 10.0234C127.12 10.0234 128.123 10.2839 128.995 10.8047C129.874 11.3255 130.532 12.0579 130.968 13.002C131.411 13.9395 131.57 15.0104 131.446 16.2148H121.456V14.5645H129.698L129.142 14.7988C129.122 14.2454 128.976 13.7507 128.702 13.3145C128.429 12.8717 128.061 12.5299 127.599 12.2891C127.137 12.0417 126.613 11.918 126.027 11.918C125.421 11.918 124.864 12.0579 124.357 12.3379C123.855 12.6178 123.458 13.0117 123.165 13.5195C122.872 14.0273 122.726 14.6003 122.726 15.2383V16.0195C122.719 16.6576 122.859 17.2305 123.146 17.7383C123.439 18.2396 123.836 18.6335 124.337 18.9199C124.838 19.2064 125.395 19.3496 126.007 19.3496C126.495 19.3496 126.945 19.2682 127.355 19.1055C127.771 18.9427 128.123 18.7214 128.409 18.4414C128.696 18.1549 128.901 17.8229 129.025 17.4453H131.359C131.183 18.207 130.844 18.8776 130.343 19.457C129.848 20.0299 129.223 20.4759 128.468 20.7949C127.719 21.1074 126.892 21.2637 125.988 21.2637ZM135.304 21H133.087V6.40039H135.304V21ZM133.087 6.40039H135.304V8.20703H133.087V6.40039ZM133.087 19.1934H135.304V21H133.087V19.1934ZM142.52 21.2344C141.446 21.2344 140.485 20.9967 139.639 20.5215C138.799 20.0462 138.138 19.3854 137.657 18.5391C137.181 17.6862 136.944 16.7194 136.944 15.6387C136.944 14.5514 137.181 13.5814 137.657 12.7285C138.138 11.8757 138.799 11.2116 139.639 10.7363C140.485 10.2611 141.446 10.0234 142.52 10.0234C143.601 10.0234 144.564 10.2611 145.411 10.7363C146.263 11.2116 146.927 11.8757 147.403 12.7285C147.885 13.5814 148.125 14.5514 148.125 15.6387C148.125 16.7194 147.888 17.6862 147.412 18.5391C146.944 19.3854 146.28 20.0462 145.42 20.5215C144.567 20.9967 143.601 21.2344 142.52 21.2344ZM142.52 19.2031C143.171 19.2031 143.747 19.0566 144.248 18.7637C144.75 18.4642 145.134 18.0443 145.401 17.5039C145.674 16.9635 145.811 16.3418 145.811 15.6387C145.811 14.929 145.674 14.304 145.401 13.7637C145.134 13.2168 144.75 12.7969 144.248 12.5039C143.747 12.2044 143.171 12.0547 142.52 12.0547C141.869 12.0547 141.296 12.2044 140.801 12.5039C140.306 12.7969 139.922 13.2168 139.649 13.7637C139.382 14.304 139.248 14.929 139.248 15.6387C139.248 16.3418 139.385 16.9635 139.659 17.5039C139.939 18.0443 140.323 18.4642 140.811 18.7637C141.306 19.0566 141.875 19.2031 142.52 19.2031Z" fill="white"/>
<defs>
<linearGradient id="paint0_linear_350_2963" x1="15.96" y1="38.84" x2="15.96" y2="-5.32" gradientUnits="userSpaceOnUse">
<stop stop-color="#2E2E2E"/>
<stop offset="1" stop-color="white"/>
</linearGradient>
</defs>
</svg>
